<svg width="27" height="24" viewBox="0 0 27 24" fill="none" xmlns="http://www.w3.org/2000/svg">
    <path d="M2.95296 22.9008C2.5252 22.9003 2.10511 22.7889 1.7348 22.5778C1.3645 22.3667 1.05701 22.0632 0.843194 21.6979C0.629377 21.3326 0.516742 20.9183 0.516602 20.4966C0.516461 20.0748 0.628822 19.6604 0.842396 19.295L11.1389 1.71046C11.3529 1.34524 11.6606 1.04197 12.031 0.831125C12.4015 0.620279 12.8217 0.509277 13.2495 0.509277C13.6773 0.509277 14.0975 0.620279 14.468 0.831125C14.8384 1.04197 15.1461 1.34524 15.3601 1.71046L25.6566 19.295C25.8702 19.6604 25.9825 20.0748 25.9824 20.4966C25.9822 20.9183 25.8696 21.3326 25.6558 21.6979C25.442 22.0632 25.1345 22.3667 24.7642 22.5778C24.3939 22.7889 23.9738 22.9003 23.546 22.9008H2.95296Z"
          fill="#FFD000"/>
    <path d="M13.2492 1.01762C13.5868 1.01769 13.9183 1.10534 14.2106 1.27176C14.5028 1.43818 14.7456 1.67751 14.9143 1.96571L25.2108 19.5485C25.3797 19.8365 25.4686 20.1632 25.4687 20.4959C25.4689 20.8285 25.3802 21.1553 25.2116 21.4434C25.043 21.7315 24.8005 21.9708 24.5084 22.1371C24.2162 22.3035 23.8848 22.3911 23.5475 22.3911H2.95271C2.61537 22.3911 2.28398 22.3035 1.99186 22.1371C1.69974 21.9708 1.4572 21.7315 1.28861 21.4434C1.12002 21.1553 1.03133 20.8285 1.03146 20.4959C1.0316 20.1632 1.12055 19.8365 1.28937 19.5485L11.5859 1.96571C11.7541 1.67741 11.9965 1.43796 12.2885 1.2715C12.5805 1.10504 12.9119 1.01747 13.2492 1.01762ZM13.2492 0C12.7309 0.000932246 12.2219 0.135981 11.773 0.391639C11.3242 0.647298 10.9512 1.01462 10.6915 1.4569L0.394918 19.0397C0.136039 19.4825 -0.000154744 19.9847 1.31943e-07 20.4958C0.000155008 21.0069 0.136653 21.509 0.3958 21.9516C0.654947 22.3943 1.02763 22.7619 1.47643 23.0177C1.92523 23.2735 2.43435 23.4083 2.95271 23.4087H23.5458C24.0641 23.4083 24.5733 23.2735 25.0221 23.0177C25.4709 22.7619 25.8435 22.3943 26.1027 21.9516C26.3618 21.509 26.4983 21.0069 26.4985 20.4958C26.4986 19.9847 26.3624 19.4825 26.1036 19.0397L15.807 1.4569C15.5474 1.0145 15.1745 0.647087 14.7256 0.391412C14.2767 0.135737 13.7676 0.000761445 13.2492 0Z"
          fill="#272E35"/>
    <path d="M13.9774 17.1825H12.5187C12.2945 17.1826 12.079 17.0963 11.9184 16.942C11.7577 16.7877 11.6645 16.5776 11.6587 16.3565L11.2562 1.88934C11.253 1.776 11.2728 1.66317 11.3146 1.55753C11.3564 1.45189 11.4192 1.35558 11.4994 1.2743C11.5796 1.19302 11.6755 1.12842 11.7815 1.08433C11.8874 1.04023 12.0012 1.01753 12.1162 1.01758H14.373C14.488 1.01753 14.6019 1.04023 14.7078 1.08433C14.8138 1.12842 14.9097 1.19302 14.9898 1.2743C15.07 1.35558 15.1329 1.45189 15.1746 1.55753C15.2164 1.66317 15.2363 1.776 15.2331 1.88934L14.8323 16.3565C14.8265 16.5767 14.734 16.7861 14.5745 16.9402C14.4149 17.0944 14.2008 17.1813 13.9774 17.1825Z"
          fill="#272E35"/>
    <path d="M12.3628 19.5356H14.1328C14.3609 19.5356 14.5797 19.625 14.7409 19.784C14.9022 19.9431 14.9929 20.1588 14.9929 20.3837V22.441C14.9929 22.5119 14.9786 22.5822 14.9508 22.6476C14.9231 22.7131 14.8824 22.7725 14.8312 22.8223C14.78 22.8722 14.7193 22.9115 14.6525 22.9381C14.5858 22.9646 14.5144 22.9778 14.4424 22.9769H12.0343C11.8901 22.9769 11.7519 22.9204 11.6499 22.8199C11.548 22.7194 11.4907 22.5831 11.4907 22.441V20.3837C11.4907 20.1588 11.5813 19.9431 11.7426 19.784C11.9039 19.625 12.1227 19.5356 12.3508 19.5356H12.3628Z"
          fill="#272E35"/>
</svg>
